# xmcd
#
# Track frame offsets: 
#        150
#        494
#        16061
#        31679
#        47556
#        68245
#        80620
#        95988
#        114298
#        132106
#        147385
#        167672
#        182132
#        191804
#        204478
#
# Disc length: 2733 seconds
#
# Revision: 3
# Processed by: cddbd v1.5.1PL0 Copyright (c) Steve Scherf et al.
# Submitted via: ExactAudioCopy v0.95b2
#
DISCID=c40aab0f
DTITLE=Libbi Bosworth - Libbiville
DYEAR=2001
DGENRE=Country
TTITLE0=Welcome
TTITLE1=Ha Ha Ha
TTITLE2=South Texas Highway
TTITLE3=Disappearing Ink
TTITLE4=Highway 59
TTITLE5=Man Overboard
TTITLE6=Baby Your Baby
TTITLE7=Straight To My Heart
TTITLE8=Necessary
TTITLE9=No Place To Go
TTITLE10=Back Home In Texas
TTITLE11=Pine Box
TTITLE12=Something to Brag About
TTITLE13=Good Luck Charm
TTITLE14=Tah-tah
EXTD=
EXTT0=
EXTT1=
EXTT2=
EXTT3=
EXTT4=
EXTT5=
EXTT6=
EXTT7=
EXTT8=
EXTT9=
EXTT10=
EXTT11=
EXTT12=
EXTT13=
EXTT14=
PLAYORDER=
